<svg width="24" height="24" viewBox="0 0 24 24" fill="none" xmlns="http://www.w3.org/2000/svg">
<rect x="14.4" width="9.6" height="12" rx="1" fill="black"/>
<rect y="16.8" width="12" height="7.2" rx="1" fill="black"/>
<rect x="14.4" y="13.2" width="9.6" height="10.8" rx="1" fill="black"/>
<rect width="12" height="15.6" rx="1" fill="black"/>
<rect x="1.20001" y="18" width="9.6" height="4.8" rx="0.4" fill="white"/>
<rect x="15.6" y="1.2" width="7.2" height="9.6" rx="0.4" fill="white"/>
<path d="M1.20001 19.2L2.40001 18" stroke="black" stroke-width="0.2" stroke-linecap="round" stroke-linejoin="round"/>
<path d="M1.20001 20.4L3.60001 18" stroke="black" stroke-width="0.2" stroke-linecap="round" stroke-linejoin="round"/>
<path d="M1.20001 21.6L4.80001 18" stroke="black" stroke-width="0.2" stroke-linecap="round" stroke-linejoin="round"/>
<path d="M1.20001 22.8L6.00001 18" stroke="black" stroke-width="0.2" stroke-linecap="round" stroke-linejoin="round"/>
<path d="M2.39999 22.8L7.19999 18" stroke="black" stroke-width="0.2" stroke-linecap="round" stroke-linejoin="round"/>
<path d="M3.60001 22.8L8.40001 18" stroke="black" stroke-width="0.2" stroke-linecap="round" stroke-linejoin="round"/>
<path d="M4.79999 22.8L9.59999 18" stroke="black" stroke-width="0.2" stroke-linecap="round" stroke-linejoin="round"/>
<path d="M6 22.8L10.8 18" stroke="black" stroke-width="0.2" stroke-linecap="round" stroke-linejoin="round"/>
<path d="M7.20001 22.8L10.8 19.2" stroke="black" stroke-width="0.2" stroke-linecap="round" stroke-linejoin="round"/>
<path d="M8.39999 22.8L10.8 20.4" stroke="black" stroke-width="0.2" stroke-linecap="round" stroke-linejoin="round"/>
<path d="M9.60001 22.8L10.8 21.6" stroke="black" stroke-width="0.2" stroke-linecap="round" stroke-linejoin="round"/>
<path d="M21.6 1.2L22.8 2.4" stroke="black" stroke-width="0.2" stroke-linecap="round" stroke-linejoin="round"/>
<path d="M20.4 1.2L22.8 3.6" stroke="black" stroke-width="0.2" stroke-linecap="round" stroke-linejoin="round"/>
<path d="M19.2 1.2L22.8 4.8" stroke="black" stroke-width="0.2" stroke-linecap="round" stroke-linejoin="round"/>
<path d="M18 1.2L22.8 6" stroke="black" stroke-width="0.2" stroke-linecap="round" stroke-linejoin="round"/>
<path d="M16.8 1.2L22.8 7.2" stroke="black" stroke-width="0.2" stroke-linecap="round" stroke-linejoin="round"/>
<path d="M15.6 1.2L22.8 8.4" stroke="black" stroke-width="0.2" stroke-linecap="round" stroke-linejoin="round"/>
<path d="M15.6 2.39999L22.8 9.59999" stroke="black" stroke-width="0.2" stroke-linecap="round" stroke-linejoin="round"/>
<path d="M15.6 3.60001L22.8 10.8" stroke="black" stroke-width="0.2" stroke-linecap="round" stroke-linejoin="round"/>
<path d="M15.6 4.8L21.6 10.8" stroke="black" stroke-width="0.2" stroke-linecap="round" stroke-linejoin="round"/>
<path d="M15.6 6L20.4 10.8" stroke="black" stroke-width="0.2" stroke-linecap="round" stroke-linejoin="round"/>
<path d="M15.6 7.2L19.2 10.8" stroke="black" stroke-width="0.2" stroke-linecap="round" stroke-linejoin="round"/>
<path d="M15.6 8.39999L18 10.8" stroke="black" stroke-width="0.2" stroke-linecap="round" stroke-linejoin="round"/>
<path d="M15.6 9.60001L16.8 10.8" stroke="black" stroke-width="0.2" stroke-linecap="round" stroke-linejoin="round"/>
<path d="M2.51562 12.1562C2.23958 11.9062 2.16667 11.6875 2.29688 11.5L2.70312 10.9141C2.84375 10.7109 3.07031 10.7266 3.38281 10.9609C3.79427 11.2682 4.22135 11.5208 4.66406 11.7188C5.11198 11.9167 5.65365 12.0156 6.28906 12.0156C6.75781 12.0156 7.15365 11.9453 7.47656 11.8047C7.79948 11.6641 8.05729 11.4635 8.25 11.2031C8.44792 10.9375 8.54688 10.6172 8.54688 10.2422C8.54688 9.97135 8.50521 9.72135 8.42188 9.49219C8.34375 9.25781 8.21615 9.0625 8.03906 8.90625C7.86198 8.75 7.67708 8.6276 7.48438 8.53906C7.16667 8.39323 6.6901 8.22396 6.05469 8.03125C5.42448 7.83854 4.8724 7.63021 4.39844 7.40625C3.92969 7.18229 3.55469 6.91146 3.27344 6.59375C2.9974 6.27604 2.8125 5.95052 2.71875 5.61719C2.63021 5.27865 2.58594 4.89323 2.58594 4.46094C2.58594 3.79948 2.77865 3.22917 3.16406 2.75C3.54948 2.27083 4.02083 1.95312 4.57812 1.79688C5.14062 1.64062 5.71094 1.5625 6.28906 1.5625C6.95052 1.5625 7.52604 1.64844 8.01562 1.82031C8.50521 1.99219 8.94271 2.21615 9.32812 2.49219C9.59896 2.6849 9.66146 2.88802 9.51562 3.10156L9.11719 3.67188C8.9974 3.84375 8.76302 3.80729 8.41406 3.5625C8.14844 3.375 7.82292 3.20052 7.4375 3.03906C7.05729 2.8724 6.67969 2.78906 6.30469 2.78906C5.82552 2.78906 5.42708 2.84635 5.10938 2.96094C4.79167 3.07031 4.54167 3.25781 4.35938 3.52344C4.17708 3.78906 4.08594 4.09635 4.08594 4.44531C4.08594 4.66406 4.10677 4.86719 4.14844 5.05469C4.1901 5.23698 4.29688 5.42448 4.46875 5.61719C4.64062 5.8099 4.84896 5.95833 5.09375 6.0625C5.42188 6.20312 5.92969 6.36979 6.61719 6.5625C7.3099 6.75 7.91406 6.98177 8.42969 7.25781C8.90885 7.51302 9.2526 7.78125 9.46094 8.0625C9.67448 8.33854 9.83854 8.64062 9.95312 8.96875C10.0729 9.29167 10.1328 9.65625 10.1328 10.0625C10.1328 10.8021 9.94271 11.4193 9.5625 11.9141C9.18229 12.4089 8.73177 12.7526 8.21094 12.9453C7.6901 13.138 7.03646 13.2344 6.25 13.2344C5.30729 13.2344 4.52604 13.125 3.90625 12.9062C3.28646 12.6875 2.82292 12.4375 2.51562 12.1562Z" fill="#AFDBE3"/>
<path d="M16.617 16.0379C16.4379 16.0379 16.3484 15.9646 16.3484 15.8182V15.4178C16.3484 15.2713 16.4379 15.198 16.617 15.198H21.783C21.962 15.198 22.0516 15.2713 22.0516 15.4178V15.8182C22.0516 15.9646 21.962 16.0379 21.783 16.0379H19.6687V21.9314C19.6687 22.1105 19.5874 22.2 19.4246 22.2H18.9754C18.8126 22.2 18.7312 22.1105 18.7312 21.9314V16.0379H16.617Z" fill="#ADEAD1"/>
</svg>
